<svg width="657.9px" height="120.8px" xmlns="http://www.w3.org/2000/svg" viewBox="-78.9375 14.600000000000001 657.875 120.8" style="background: rgba(0, 0, 0, 0)" preserveAspectRatio="xMidYMid"><defs><linearGradient id="editing-gradow-gradient" x1="0" x2="1" y1="0.5" y2="0.5" gradientUnits="objectBoundingBox"><stop offset="0" stop-color="#33d2d2"></stop><stop offset="1" stop-color="#ff00db"></stop></linearGradient><filter id="editing-gradow-filter" x="-100%" y="-100%" width="300%" height="300%"><feFlood flood-color="rgba(0%,0%,0%,0)" result="flood"></feFlood><feComposite operator="in" in2="SourceAlpha" in="flood" result="shadow"></feComposite><feOffset dx="-4" dy="-4" in="SourceGraphic" result="offset-1"></feOffset><feOffset dx="4" dy="4" in="shadow" result="offset-2"></feOffset><feMerge><feMergeNode in="offset-2"></feMergeNode><feMergeNode in="offset-1"></feMergeNode></feMerge></filter></defs><g transform="matrix(1,0,0,1,-1.5,4.4)" filter="url(#editing-gradow-filter)"><g transform="matrix(1.4,0,0,1.8,-56.2,201.4)"><path d="M -0.2 -55.3 L -14.2 -55.3 L -6.1 -97.6 L 8 -97.6 L -0.2 -55.3 Z M 55.5 -54 L 55.5 -54 L 55.5 -54 Q 47.8 -54 47.8 -60.1 L 47.8 -60.1 L 47.8 -60.1 Q 47.8 -62.7 48.9 -67.8 L 48.9 -67.8 L 48.9 -67.8 Q 50 -72.9 50.4 -74.9 L 50.4 -74.9 L 50.4 -74.9 Q 51.3 -79.6 51.3 -81 L 51.3 -81 L 51.3 -81 Q 51.3 -84.3 48.8 -84.3 L 48.8 -84.3 L 48.8 -84.3 Q 47.2 -84.3 45.7 -82.1 L 45.7 -82.1 L 45.7 -82.1 Q 44.2 -79.9 43.5 -75.5 L 43.5 -75.5 L 39.5 -55.3 L 27 -54 L 30.5 -71.4 L 30.5 -71.4 Q 31 -74.3 31.6 -77.6 L 31.6 -77.6 L 31.6 -77.6 Q 32.1 -80.9 32.1 -81.4 L 32.1 -81.4 L 32.1 -81.4 Q 32.1 -84.3 29.9 -84.3 L 29.9 -84.3 L 29.9 -84.3 Q 28.4 -84.3 26.8 -82.1 L 26.8 -82.1 L 26.8 -82.1 Q 25.2 -80 24.3 -75.5 L 24.3 -75.5 L 20.4 -55.3 L 7.8 -54 L 14.5 -88 L 25 -89.2 L 23.9 -82.8 L 23.9 -82.8 Q 25.5 -86.2 28.6 -87.7 L 28.6 -87.7 L 28.6 -87.7 Q 31.7 -89.2 36.5 -89.2 L 36.5 -89.2 L 36.5 -89.2 Q 39.2 -89.2 41 -87.9 L 41 -87.9 L 41 -87.9 Q 42.8 -86.5 43.4 -84.4 L 43.4 -84.4 L 43.4 -84.4 Q 44.5 -86.6 47.3 -87.9 L 47.3 -87.9 L 47.3 -87.9 Q 50.1 -89.2 53.5 -89.2 L 53.5 -89.2 L 53.5 -89.2 Q 56.9 -89.2 58.6 -88.5 L 58.6 -88.5 L 58.6 -88.5 Q 60.3 -87.8 61.3 -86.5 L 61.3 -86.5 L 61.3 -86.5 Q 63 -84.3 63 -80.2 L 63 -80.2 L 63 -80.2 Q 63 -76.2 61.3 -67.8 L 61.3 -67.8 L 61.3 -67.8 Q 60.4 -63.7 60.4 -62.2 L 60.4 -62.2 L 60.4 -62.2 Q 60.4 -60.7 61.3 -59.8 L 61.3 -59.8 L 61.3 -59.8 Q 62.2 -58.9 63.4 -58.8 L 63.4 -58.8 L 63.4 -58.8 Q 62.8 -56.6 60.6 -55.3 L 60.6 -55.3 L 60.6 -55.3 Q 58.4 -54 55.5 -54 Z M 71.1 -57.2 L 71.1 -57.2 L 71.1 -57.2 Q 69.6 -58.9 69 -61.5 L 69 -61.5 L 69 -61.5 Q 68.3 -64.1 68.3 -68.4 L 68.3 -68.4 L 68.3 -68.4 Q 68.3 -72.7 69.8 -76.6 L 69.8 -76.6 L 69.8 -76.6 Q 71.2 -80.5 73.9 -83.3 L 73.9 -83.3 L 73.9 -83.3 Q 79.4 -89.2 88.5 -89.2 L 88.5 -89.2 L 88.5 -89.2 Q 91.8 -89.2 94.2 -88.1 L 94.2 -88.1 L 105.1 -89.2 L 100.4 -64.3 L 100.4 -64.3 Q 100.2 -63.5 100.2 -62.1 L 100.2 -62.1 L 100.2 -62.1 Q 100.2 -60.7 101 -59.8 L 101 -59.8 L 101 -59.8 Q 101.9 -58.9 103.2 -58.8 L 103.2 -58.8 L 103.2 -58.8 Q 102.5 -56.6 100.2 -55.3 L 100.2 -55.3 L 100.2 -55.3 Q 97.9 -54 95.2 -54 L 95.2 -54 L 95.2 -54 Q 92.6 -54 90.9 -55 L 90.9 -55 L 90.9 -55 Q 89.1 -56 88.6 -57.7 L 88.6 -57.7 L 88.6 -57.7 Q 87.6 -56.1 85.4 -55.1 L 85.4 -55.1 L 85.4 -55.1 Q 83.2 -54 80.3 -54 L 80.3 -54 L 80.3 -54 Q 77.4 -54 75 -54.8 L 75 -54.8 L 75 -54.8 Q 72.6 -55.6 71.1 -57.2 Z M 84.6 -83.2 L 84.6 -83.2 L 84.6 -83.2 Q 83.9 -82.1 83.3 -80.1 L 83.3 -80.1 L 83.3 -80.1 Q 82.6 -78.2 81.6 -72.9 L 81.6 -72.9 L 81.6 -72.9 Q 80.5 -67.7 80.5 -64 L 80.5 -64 L 80.5 -64 Q 80.5 -60.3 81.1 -59.2 L 81.1 -59.2 L 81.1 -59.2 Q 81.7 -58.1 82.7 -58.1 L 82.7 -58.1 L 82.7 -58.1 Q 84.7 -58.1 86.2 -60.1 L 86.2 -60.1 L 86.2 -60.1 Q 87.8 -62 88.3 -65.5 L 88.3 -65.5 L 91.7 -84.2 L 91.7 -84.2 Q 90.4 -85.4 88.8 -85.4 L 88.8 -85.4 L 88.8 -85.4 Q 87.2 -85.4 86.3 -84.9 L 86.3 -84.9 L 86.3 -84.9 Q 85.4 -84.4 84.6 -83.2 Z M 112.8 -82.1 L 112.8 -82.1 L 112.8 -82.1 Q 115 -85.1 118.3 -87.2 L 118.3 -87.2 L 118.3 -87.2 Q 121.6 -89.2 125.6 -89.2 L 125.6 -89.2 L 125.6 -89.2 Q 129.7 -89.2 131.6 -88 L 131.6 -88 L 144.1 -89.2 L 139.8 -64.7 L 139.8 -64.7 Q 137.5 -52.1 132.8 -47.2 L 132.8 -47.2 L 132.8 -47.2 Q 128.3 -42.5 119.4 -42.5 L 119.4 -42.5 L 119.4 -42.5 Q 112.7 -42.5 108.9 -44.6 L 108.9 -44.6 L 108.9 -44.6 Q 105 -46.7 105 -50.3 L 105 -50.3 L 105 -50.3 Q 105 -52.9 107 -54.4 L 107 -54.4 L 107 -54.4 Q 109 -55.9 112.1 -55.9 L 112.1 -55.9 L 112.1 -55.9 Q 114.8 -55.9 116.8 -54.7 L 116.8 -54.7 L 116.8 -54.7 Q 118 -54 118.6 -53.1 L 118.6 -53.1 L 118.6 -53.1 Q 117.1 -51.9 117.1 -49.7 L 117.1 -49.7 L 117.1 -49.7 Q 117.1 -47 119.7 -47 L 119.7 -47 L 119.7 -47 Q 124 -47 126.4 -57.1 L 126.4 -57.1 L 126.4 -57.1 Q 127.1 -59.9 127.7 -62.6 L 127.7 -62.6 L 127.7 -62.6 Q 124.8 -59.1 118.3 -59.1 L 118.3 -59.1 L 118.3 -59.1 Q 113.7 -59.1 111.1 -61.3 L 111.1 -61.3 L 111.1 -61.3 Q 108.5 -63.4 108.5 -68.6 L 108.5 -68.6 L 108.5 -68.6 Q 108.5 -71.8 109.6 -75.4 L 109.6 -75.4 L 109.6 -75.4 Q 110.7 -79 112.8 -82.1 Z M 121.2 -68.4 L 121.2 -68.4 L 121.2 -68.4 Q 121.2 -64 123.4 -64 L 123.4 -64 L 123.4 -64 Q 124.9 -64 126.4 -65.7 L 126.4 -65.7 L 126.4 -65.7 Q 127.6 -67 128 -69 L 128 -69 L 131.3 -85.5 L 131.3 -85.5 Q 131 -85.5 130.6 -85.7 L 130.6 -85.7 L 130.6 -85.7 Q 130 -85.9 129.2 -85.9 L 129.2 -85.9 L 129.2 -85.9 Q 125.3 -85.9 123 -79.5 L 123 -79.5 L 123 -79.5 Q 121.2 -74.5 121.2 -68.4 Z M 172.6 -66.1 L 172.6 -66.1 L 172.6 -66.1 Q 174.2 -65 174.2 -62.6 L 174.2 -62.6 L 174.2 -62.6 Q 174.2 -60.2 172.9 -58.7 L 172.9 -58.7 L 172.9 -58.7 Q 171.7 -57.2 169.7 -56.1 L 169.7 -56.1 L 169.7 -56.1 Q 165.6 -54 161.2 -54 L 161.2 -54 L 161.2 -54 Q 156.8 -54 154.2 -55 L 154.2 -55 L 154.2 -55 Q 151.6 -56 149.9 -57.7 L 149.9 -57.7 L 149.9 -57.7 Q 146.5 -61.1 146.5 -67.3 L 146.5 -67.3 L 146.5 -67.3 Q 146.5 -77 151.8 -82.9 L 151.8 -82.9 L 151.8 -82.9 Q 157.4 -89.2 167.2 -89.2 L 167.2 -89.2 L 167.2 -89.2 Q 173.3 -89.2 176.3 -86.7 L 176.3 -86.7 L 176.3 -86.7 Q 178.5 -84.8 178.5 -81.6 L 178.5 -81.6 L 178.5 -81.6 Q 178.5 -70.4 159 -70.4 L 159 -70.4 L 159 -70.4 Q 158.8 -68.7 158.8 -67.3 L 158.8 -67.3 L 158.8 -67.3 Q 158.8 -64.3 160.1 -63.2 L 160.1 -63.2 L 160.1 -63.2 Q 161.4 -62.1 163.8 -62.1 L 163.8 -62.1 L 163.8 -62.1 Q 166.3 -62.1 168.9 -63.2 L 168.9 -63.2 L 168.9 -63.2 Q 171.5 -64.3 172.6 -66.1 Z M 159.5 -73.1 L 159.5 -73.1 L 159.5 -73.1 Q 164 -73.1 166.7 -75.9 L 166.7 -75.9 L 166.7 -75.9 Q 169.3 -78.6 169.3 -82.9 L 169.3 -82.9 L 169.3 -82.9 Q 169.3 -84.4 168.7 -85.2 L 168.7 -85.2 L 168.7 -85.2 Q 168.2 -86 167.1 -86 L 167.1 -86 L 167.1 -86 Q 166 -86 165.1 -85.6 L 165.1 -85.6 L 165.1 -85.6 Q 164.2 -85.1 163.2 -83.7 L 163.2 -83.7 L 163.2 -83.7 Q 160.8 -80.5 159.5 -73.1 Z M 199.8 -77.8 L 199.8 -77.8 L 199.8 -77.8 Q 200.7 -80.1 200.7 -82.2 L 200.7 -82.2 L 200.7 -82.2 Q 200.7 -86 197.6 -86 L 197.6 -86 L 197.6 -86 Q 196 -86 194.7 -84.5 L 194.7 -84.5 L 194.7 -84.5 Q 193.4 -83.1 193.4 -81.3 L 193.4 -81.3 L 193.4 -81.3 Q 193.4 -80 194.4 -79 L 194.4 -79 L 194.4 -79 Q 195.9 -77.6 199.7 -75.3 L 199.7 -75.3 L 199.7 -75.3 Q 203.5 -73 204.9 -71.1 L 204.9 -71.1 L 204.9 -71.1 Q 206.3 -69.2 206.3 -66.6 L 206.3 -66.6 L 206.3 -66.6 Q 206.3 -64 205.1 -61.7 L 205.1 -61.7 L 205.1 -61.7 Q 203.8 -59.3 201.6 -57.6 L 201.6 -57.6 L 201.6 -57.6 Q 196.8 -54 189.1 -54 L 189.1 -54 L 189.1 -54 Q 185 -54 181.8 -56.2 L 181.8 -56.2 L 181.8 -56.2 Q 178.6 -58.3 178.6 -60.8 L 178.6 -60.8 L 178.6 -60.8 Q 178.6 -63.3 180.4 -64.8 L 180.4 -64.8 L 180.4 -64.8 Q 182.2 -66.3 184.9 -66.3 L 184.9 -66.3 L 184.9 -66.3 Q 187.6 -66.3 189.3 -65.2 L 189.3 -65.2 L 189.3 -65.2 Q 188.4 -63.1 188.4 -61.7 L 188.4 -61.7 L 188.4 -61.7 Q 188.4 -57.5 192 -57.5 L 192 -57.5 L 192 -57.5 Q 193.5 -57.5 194.6 -58.5 L 194.6 -58.5 L 194.6 -58.5 Q 195.6 -59.4 195.6 -61.1 L 195.6 -61.1 L 195.6 -61.1 Q 195.6 -64.3 190.1 -67.8 L 190.1 -67.8 L 190.1 -67.8 Q 185.6 -70.7 184.6 -71.9 L 184.6 -71.9 L 184.6 -71.9 Q 182.9 -73.9 182.9 -76.5 L 182.9 -76.5 L 182.9 -76.5 Q 182.9 -79.1 184.1 -81.5 L 184.1 -81.5 L 184.1 -81.5 Q 185.3 -83.9 187.5 -85.7 L 187.5 -85.7 L 187.5 -85.7 Q 192.2 -89.2 200.3 -89.2 L 200.3 -89.2 L 200.3 -89.2 Q 204.5 -89.2 207 -87.6 L 207 -87.6 L 207 -87.6 Q 209.4 -85.9 209.4 -83.1 L 209.4 -83.1 L 209.4 -83.1 Q 209.4 -80.3 207.7 -78.7 L 207.7 -78.7 L 207.7 -78.7 Q 206 -77.1 203 -77.1 L 203 -77.1 L 203 -77.1 Q 200.8 -77.1 199.8 -77.8 Z M 250.9 -75.9 L 263.8 -77.1 L 263.8 -77.1 Q 259.2 -67 259.2 -55.3 L 259.2 -55.3 L 259.2 -55.3 Q 257.5 -54 255 -54 L 255 -54 L 255 -54 Q 252.4 -54 250.8 -55.2 L 250.8 -55.2 L 250.8 -55.2 Q 249.2 -56.4 248.9 -57.6 L 248.9 -57.6 L 248.9 -57.6 Q 247.3 -56 244.7 -55 L 244.7 -55 L 244.7 -55 Q 242.1 -54 239.4 -54 L 239.4 -54 L 239.4 -54 Q 236.6 -54 234.2 -54.9 L 234.2 -54.9 L 234.2 -54.9 Q 231.8 -55.8 230 -57.8 L 230 -57.8 L 230 -57.8 Q 225.9 -62.2 225.9 -70.4 L 225.9 -70.4 L 225.9 -70.4 Q 225.9 -83.2 232.7 -90.9 L 232.7 -90.9 L 232.7 -90.9 Q 239.8 -98.8 252.2 -98.8 L 252.2 -98.8 L 252.2 -98.8 Q 260.9 -98.8 263.9 -94.4 L 263.9 -94.4 L 263.9 -94.4 Q 264.9 -92.9 264.9 -91.3 L 264.9 -91.3 L 264.9 -91.3 Q 264.9 -89.6 264.2 -88.1 L 264.2 -88.1 L 264.2 -88.1 Q 263.4 -86.7 262.3 -85.5 L 262.3 -85.5 L 262.3 -85.5 Q 259.5 -83 256.1 -83 L 256.1 -83 L 256.1 -83 Q 254.8 -83 253.5 -83.4 L 253.5 -83.4 L 253.5 -83.4 Q 253.8 -85.3 253.8 -87.6 L 253.8 -87.6 L 253.8 -87.6 Q 253.8 -89.8 253.6 -90.8 L 253.6 -90.8 L 253.6 -90.8 Q 253.4 -91.9 253.1 -92.7 L 253.1 -92.7 L 253.1 -92.7 Q 252.2 -94.4 250.4 -94.4 L 250.4 -94.4 L 250.4 -94.4 Q 248.6 -94.4 246.6 -92.5 L 246.6 -92.5 L 246.6 -92.5 Q 244.6 -90.5 243 -87.3 L 243 -87.3 L 243 -87.3 Q 239.4 -80.1 239.4 -71.5 L 239.4 -71.5 L 239.4 -71.5 Q 239.4 -67.5 241 -64.7 L 241 -64.7 L 241 -64.7 Q 242.6 -61.7 245.6 -61.7 L 245.6 -61.7 L 245.6 -61.7 Q 246.6 -61.7 247.5 -62.2 L 247.5 -62.2 L 247.5 -62.2 Q 248.5 -62.7 248.8 -63.1 L 248.8 -63.1 L 250.9 -75.9 Z M 269.7 -57.2 L 269.7 -57.2 L 269.7 -57.2 Q 268.2 -58.9 267.6 -61.5 L 267.6 -61.5 L 267.6 -61.5 Q 266.9 -64.1 266.9 -68.4 L 266.9 -68.4 L 266.9 -68.4 Q 266.9 -72.7 268.4 -76.6 L 268.4 -76.6 L 268.4 -76.6 Q 269.8 -80.5 272.5 -83.3 L 272.5 -83.3 L 272.5 -83.3 Q 278 -89.2 287.1 -89.2 L 287.1 -89.2 L 287.1 -89.2 Q 290.4 -89.2 292.7 -88.1 L 292.7 -88.1 L 303.7 -89.2 L 299 -64.3 L 299 -64.3 Q 298.8 -63.5 298.8 -62.1 L 298.8 -62.1 L 298.8 -62.1 Q 298.8 -60.7 299.6 -59.8 L 299.6 -59.8 L 299.6 -59.8 Q 300.5 -58.9 301.8 -58.8 L 301.8 -58.8 L 301.8 -58.8 Q 301.1 -56.6 298.8 -55.3 L 298.8 -55.3 L 298.8 -55.3 Q 296.5 -54 293.8 -54 L 293.8 -54 L 293.8 -54 Q 291.2 -54 289.4 -55 L 289.4 -55 L 289.4 -55 Q 287.7 -56 287.2 -57.7 L 287.2 -57.7 L 287.2 -57.7 Q 286.2 -56.1 284 -55.1 L 284 -55.1 L 284 -55.1 Q 281.8 -54 278.9 -54 L 278.9 -54 L 278.9 -54 Q 276 -54 273.6 -54.8 L 273.6 -54.8 L 273.6 -54.8 Q 271.2 -55.6 269.7 -57.2 Z M 283.2 -83.2 L 283.2 -83.2 L 283.2 -83.2 Q 282.5 -82.1 281.9 -80.1 L 281.9 -80.1 L 281.9 -80.1 Q 281.2 -78.2 280.2 -72.9 L 280.2 -72.9 L 280.2 -72.9 Q 279.1 -67.7 279.1 -64 L 279.1 -64 L 279.1 -64 Q 279.1 -60.3 279.7 -59.2 L 279.7 -59.2 L 279.7 -59.2 Q 280.3 -58.1 281.3 -58.1 L 281.3 -58.1 L 281.3 -58.1 Q 283.3 -58.1 284.8 -60.1 L 284.8 -60.1 L 284.8 -60.1 Q 286.3 -62 286.9 -65.5 L 286.9 -65.5 L 290.3 -84.2 L 290.3 -84.2 Q 289 -85.4 287.4 -85.4 L 287.4 -85.4 L 287.4 -85.4 Q 285.8 -85.4 284.9 -84.9 L 284.9 -84.9 L 284.9 -84.9 Q 284 -84.4 283.2 -83.2 Z M 322.4 -58.8 L 322.4 -58.8 L 322.4 -58.8 Q 320.5 -54 314.1 -54 L 314.1 -54 L 314.1 -54 Q 310.9 -54 308.9 -56.3 L 308.9 -56.3 L 308.9 -56.3 Q 307.2 -58.1 307.2 -60.2 L 307.2 -60.2 L 307.2 -60.2 Q 307.2 -65 309.4 -75.5 L 309.4 -75.5 L 314.1 -100.1 L 327.1 -101.4 L 320.9 -69 L 320.9 -69 Q 319.8 -64.3 319.8 -62.6 L 319.8 -62.6 L 319.8 -62.6 Q 319.8 -59 322.4 -58.8 Z M 343.2 -58.8 L 343.2 -58.8 L 343.2 -58.8 Q 341.2 -54 334.9 -54 L 334.9 -54 L 334.9 -54 Q 331.7 -54 329.6 -56.3 L 329.6 -56.3 L 329.6 -56.3 Q 327.9 -58.1 327.9 -60.2 L 327.9 -60.2 L 327.9 -60.2 Q 327.9 -65 330.2 -75.5 L 330.2 -75.5 L 334.9 -100.1 L 347.8 -101.4 L 341.6 -69 L 341.6 -69 Q 340.6 -64.3 340.6 -62.6 L 340.6 -62.6 L 340.6 -62.6 Q 340.6 -59 343.2 -58.8 Z M 374.5 -66.1 L 374.5 -66.1 L 374.5 -66.1 Q 376.1 -65 376.1 -62.6 L 376.1 -62.6 L 376.1 -62.6 Q 376.1 -60.2 374.9 -58.7 L 374.9 -58.7 L 374.9 -58.7 Q 373.7 -57.2 371.7 -56.1 L 371.7 -56.1 L 371.7 -56.1 Q 367.6 -54 363.2 -54 L 363.2 -54 L 363.2 -54 Q 358.8 -54 356.2 -55 L 356.2 -55 L 356.2 -55 Q 353.6 -56 351.9 -57.7 L 351.9 -57.7 L 351.9 -57.7 Q 348.5 -61.1 348.5 -67.3 L 348.5 -67.3 L 348.5 -67.3 Q 348.5 -77 353.7 -82.9 L 353.7 -82.9 L 353.7 -82.9 Q 359.4 -89.2 369.2 -89.2 L 369.2 -89.2 L 369.2 -89.2 Q 375.2 -89.2 378.2 -86.7 L 378.2 -86.7 L 378.2 -86.7 Q 380.5 -84.8 380.5 -81.6 L 380.5 -81.6 L 380.5 -81.6 Q 380.5 -70.4 361 -70.4 L 361 -70.4 L 361 -70.4 Q 360.8 -68.7 360.8 -67.3 L 360.8 -67.3 L 360.8 -67.3 Q 360.8 -64.3 362.1 -63.2 L 362.1 -63.2 L 362.1 -63.2 Q 363.4 -62.1 365.8 -62.1 L 365.8 -62.1 L 365.8 -62.1 Q 368.3 -62.1 370.9 -63.2 L 370.9 -63.2 L 370.9 -63.2 Q 373.4 -64.3 374.5 -66.1 Z M 361.5 -73.1 L 361.5 -73.1 L 361.5 -73.1 Q 366 -73.1 368.6 -75.9 L 368.6 -75.9 L 368.6 -75.9 Q 371.3 -78.6 371.3 -82.9 L 371.3 -82.9 L 371.3 -82.9 Q 371.3 -84.4 370.7 -85.2 L 370.7 -85.2 L 370.7 -85.2 Q 370.2 -86 369.1 -86 L 369.1 -86 L 369.1 -86 Q 368 -86 367.1 -85.6 L 367.1 -85.6 L 367.1 -85.6 Q 366.2 -85.1 365.2 -83.7 L 365.2 -83.7 L 365.2 -83.7 Q 362.8 -80.5 361.5 -73.1 Z M 402.7 -73.3 L 402.7 -73.3 L 402.7 -73.3 Q 405 -77.4 405 -81.6 L 405 -81.6 L 405 -81.6 Q 405 -84.3 403 -84.3 L 403 -84.3 L 403 -84.3 Q 401.5 -84.3 399.9 -81.7 L 399.9 -81.7 L 399.9 -81.7 Q 398.2 -79.1 397.7 -75.7 L 397.7 -75.7 L 394.4 -55.3 L 381.1 -54 L 387.7 -88 L 398.2 -89.2 L 397.1 -82.8 L 397.1 -82.8 Q 400.2 -89.2 407.2 -89.2 L 407.2 -89.2 L 407.2 -89.2 Q 411 -89.2 413 -87.3 L 413 -87.3 L 413 -87.3 Q 415 -85.4 415 -81.5 L 415 -81.5 L 415 -81.5 Q 415 -77.5 412.4 -75 L 412.4 -75 L 412.4 -75 Q 409.8 -72.5 405.4 -72.5 L 405.4 -72.5 L 405.4 -72.5 Q 403.5 -72.5 402.7 -73.3 Z M 436.4 -62.5 L 436.4 -62.5 L 436.4 -62.5 Q 433 -59.1 427 -59.1 L 427 -59.1 L 427 -59.1 Q 419.3 -59.1 417.7 -64.7 L 417.7 -64.7 L 417.7 -64.7 Q 417.2 -66.3 417.2 -68.2 L 417.2 -68.2 L 417.2 -68.2 Q 417.2 -70 417.6 -72 L 417.6 -72 L 420.6 -88 L 433.6 -89.2 L 430.1 -70.6 L 430.1 -70.6 Q 430 -69.8 429.8 -68.9 L 429.8 -68.9 L 429.8 -68.9 Q 429.6 -68 429.6 -67.1 L 429.6 -67.1 L 429.6 -67.1 Q 429.6 -66.1 429.9 -65.5 L 429.9 -65.5 L 429.9 -65.5 Q 430.2 -64.9 430.7 -64.5 L 430.7 -64.5 L 430.7 -64.5 Q 431.4 -64 432.8 -64 L 432.8 -64 L 432.8 -64 Q 434.2 -64 435.4 -65.7 L 435.4 -65.7 L 435.4 -65.7 Q 436.6 -67.3 437.1 -70.2 L 437.1 -70.2 L 440.6 -88 L 453.3 -89.2 L 448.5 -64.1 L 448.5 -64.1 Q 446.1 -51.8 441.2 -46.9 L 441.2 -46.9 L 441.2 -46.9 Q 438.7 -44.4 435.5 -43.4 L 435.5 -43.4 L 435.5 -43.4 Q 432.3 -42.5 428.1 -42.5 L 428.1 -42.5 L 428.1 -42.5 Q 421.4 -42.5 417.5 -44.6 L 417.5 -44.6 L 417.5 -44.6 Q 413.7 -46.7 413.7 -50.2 L 413.7 -50.2 L 413.7 -50.2 Q 413.7 -52.8 415.7 -54.3 L 415.7 -54.3 L 415.7 -54.3 Q 417.7 -55.8 420.7 -55.8 L 420.7 -55.8 L 420.7 -55.8 Q 423.4 -55.8 425.5 -54.7 L 425.5 -54.7 L 425.5 -54.7 Q 426.7 -54 427.3 -53.1 L 427.3 -53.1 L 427.3 -53.1 Q 425.8 -51.8 425.8 -49.7 L 425.8 -49.7 L 425.8 -49.7 Q 425.8 -46.9 428.4 -46.9 L 428.4 -46.9 L 428.4 -46.9 Q 432.6 -46.9 435 -56.6 L 435 -56.6 L 435 -56.6 Q 435.7 -59.5 436.4 -62.5 Z" fill="url(#editing-gradow-gradient)"></path></g></g><style>text {
  font-size: 64px;
  font-family: Arial Black;
  dominant-baseline: central;
  text-anchor: middle;
}</style></svg>